HIERARCHY
ROOT Hips
{
  OFFSET 4.68556 39.8007 -17.7334
  CHANNELS 6 Xposition Yposition Zposition Zrotation Xrotation Yrotation
  JOINT LeftHip
  {
    OFFSET 3.43 7.10543e-015 2.84217e-014
    CHANNELS 6 Xposition Yposition Zposition Zrotation Xrotation Yrotation
    JOINT LeftKnee
    {
      OFFSET -1.42109e-014 -18.47 -3.19744e-014
      CHANNELS 6 Xposition Yposition Zposition Zrotation Xrotation Yrotation
      JOINT LeftAnkle
      {
        OFFSET 0 -17.95 8.88178e-016
        CHANNELS 6 Xposition Yposition Zposition Zrotation Xrotation Yrotation
        End Site
        {
          OFFSET 0 -3.12 0
        }
      }
    }
  }
  JOINT RightHip
  {
    OFFSET -3.43 2.84217e-013 0
    CHANNELS 6 Xposition Yposition Zposition Zrotation Xrotation Yrotation
    JOINT RightKnee
    {
      OFFSET 5.32907e-015 -18.47 -7.10543e-015
      CHANNELS 6 Xposition Yposition Zposition Zrotation Xrotation Yrotation
      JOINT RightAnkle
      {
        OFFSET -7.10543e-015 -17.95 3.55271e-015
        CHANNELS 6 Xposition Yposition Zposition Zrotation Xrotation Yrotation
        End Site
        {
          OFFSET 0 -3.12 0
        }
      }
    }
  }
  JOINT Chest
  {
    OFFSET -1.20792e-013 4.57 -1.77636e-014
    CHANNELS 6 Xposition Yposition Zposition Zrotation Xrotation Yrotation
    JOINT Chest2
    {
      OFFSET -7.10543e-015 6.57 -3.55271e-015
      CHANNELS 6 Xposition Yposition Zposition Zrotation Xrotation Yrotation
      JOINT LeftCollar
      {
        OFFSET 1.06 4.19 1.76
        CHANNELS 6 Xposition Yposition Zposition Zrotation Xrotation Yrotation
        JOINT LeftShoulder
        {
          OFFSET 5.81 1.42109e-014 -1.64313e-014
          CHANNELS 6 Xposition Yposition Zposition Zrotation Xrotation Yrotation
          JOINT LeftElbow
          {
            OFFSET 7.10543e-015 -12.08 1.77636e-014
            CHANNELS 6 Xposition Yposition Zposition Zrotation Xrotation Yrotation
            JOINT LeftWrist
            {
              OFFSET 1.42109e-014 -9.82 -3.55271e-015
              CHANNELS 6 Xposition Yposition Zposition Zrotation Xrotation Yrotation
              End Site
              {
                OFFSET 0 -7.37 0
              }
            }
          }
        }
      }
      JOINT RightCollar
      {
        OFFSET -1.06 4.19 1.76
        CHANNELS 6 Xposition Yposition Zposition Zrotation Xrotation Yrotation
        JOINT RightShoulder
        {
          OFFSET -6.06 2.84217e-014 1.77636e-015
          CHANNELS 6 Xposition Yposition Zposition Zrotation Xrotation Yrotation
          JOINT RightElbow
          {
            OFFSET 5.32907e-014 -11.08 1.77636e-014
            CHANNELS 6 Xposition Yposition Zposition Zrotation Xrotation Yrotation
            JOINT RightWrist
            {
              OFFSET -2.59889e-025 -9.82 2.22045e-015
              CHANNELS 6 Xposition Yposition Zposition Zrotation Xrotation Yrotation
              End Site
              {
                OFFSET 0 -7.14001 0
              }
            }
          }
        }
      }
      JOINT Neck
      {
        OFFSET -7.10543e-015 4.05 0
        CHANNELS 6 Xposition Yposition Zposition Zrotation Xrotation Yrotation
        JOINT Head
        {
          OFFSET -3.55271e-015 5.19 -3.55271e-015
          CHANNELS 6 Xposition Yposition Zposition Zrotation Xrotation Yrotation
          End Site
          {
            OFFSET 0 4.14001 0
          }
        }
      }
    }
  }
}
MOTION
Frames:	10
Frame Time:	0.0333333
18.3465 39.8122 -6.89224 0.119086 -0.0664291 0.189662 3.43 8.16014e-015 6.02065e-016 3.02525 2.08463 5.75335 -1.42109e-014 -18.47 -6.47018e-015 1.29375 3.67992 5.16541 0 -17.95 8.88178e-016 -5.1071 -4.91791 -0.21948 -3.43 -1.67915e-013 0 -6.04533 0.604577 -8.20024 5.32907e-015 -18.47 -7.3911e-015 -0.361177 2.34256 -4.5116 -7.10543e-015 -17.95 3.55271e-015 6.44544 -1.51233 0.0851569 -1.20792e-013 4.57 -1.77636e-014 0.553724 1.59885 -0.0134255 -7.10543e-015 6.57 -3.55271e-015 0.502585 1.43485 0.0411812 1.06 4.19 1.76 5.04614 1.37883 18.3196 5.81 -1.06007e-013 -1.64313e-014 87.7273 -23.3193 22.0451 7.10543e-015 -12.08 4.11767e-015 -2.75113 -2.10467 -6.24003 1.42109e-014 -9.82 -3.55271e-015 -1.55987 -0.561934 -0.00765528 -1.06 4.19 1.76 -9.22486 1.88076 -18.4267 -6.06 -1.35225e-013 1.77636e-015 -86.7695 -10.9939 -24.7155 1.43507e-014 -11.08 1.03599e-014 5.81488 -2.23734 18.6554 -2.29347e-016 -9.82 1.93146e-015 -0.49428 -6.1471 -0.0265494 -7.10543e-015 4.05 0 -2.38512 -0.461887 0.270068 -3.55271e-015 5.19 -3.55271e-015 3.47074 20.8223 -1.95545 
18.3512 39.8147 -6.89854 0.124678 -0.0430349 0.187791 3.43 3.86913e-014 -2.58976e-016 3.00507 2.11067 5.73866 -1.42109e-014 -18.47 -7.19578e-015 1.29012 3.6534 5.11945 0 -17.95 8.88178e-016 -5.09205 -4.94818 -0.220161 -3.43 -3.30047e-013 0 -6.04716 0.566377 -8.18993 5.32907e-015 -18.47 -8.29162e-015 -0.373558 2.33649 -4.55354 -7.10543e-015 -17.95 3.55271e-015 6.45151 -1.48824 0.0838744 -1.20792e-013 4.57 -1.77636e-014 0.520063 1.60167 -0.0730376 -7.10543e-015 6.57 -3.55271e-015 0.477232 1.43755 -0.0161539 1.06 4.19 1.76 4.90337 1.36591 18.4332 5.81 -1.06063e-013 -1.64313e-014 87.9444 -23.3097 22.0353 7.10543e-015 -12.08 5.66746e-015 -2.80526 -2.11083 -6.03172 1.42109e-014 -9.82 -3.55271e-015 -1.46503 -0.629189 -0.00803024 -1.06 4.19 1.76 -9.22743 1.87657 -18.3741 -6.06 -2.51493e-013 1.77636e-015 -86.774 -11.0472 -24.7832 1.50437e-014 -11.08 8.74277e-015 5.80338 -2.23342 18.9309 -9.62432e-016 -9.82 2.34768e-015 -0.422516 -6.19752 -0.0228332 -7.10543e-015 4.05 0 -2.47348 -0.539566 0.362159 -3.55271e-015 5.19 -3.55271e-015 3.80205 20.8657 -2.05426 
18.3577 39.8118 -6.9043 0.114245 -0.0507701 0.168431 3.43 -1.5965e-013 -1.50338e-015 3.00807 1.97713 5.71293 -1.42109e-014 -18.47 -8.21219e-015 1.3172 3.92629 5.16902 0 -17.95 8.88178e-016 -5.11424 -5.07661 -0.226861 -3.43 -3.13708e-013 0 -6.02493 0.597113 -8.1492 5.32907e-015 -18.47 -9.6278e-015 -0.408449 2.24457 -4.53921 -7.10543e-015 -17.95 3.55271e-015 6.47261 -1.42505 0.0805856 -1.20792e-013 4.57 -1.77636e-014 0.499394 1.61321 -0.0833453 -7.10543e-015 6.57 -3.55271e-015 0.459177 1.44813 -0.0282298 1.06 4.19 1.76 4.76256 1.35161 18.5099 5.81 -1.07643e-013 -1.64313e-014 88.08 -23.3638 22.1069 7.10543e-015 -12.08 7.7664e-015 -2.78344 -2.12119 -6.20167 1.42109e-014 -9.82 -3.55271e-015 -1.46564 -0.58322 -0.00742036 -1.06 4.19 1.76 -9.2593 1.87868 -18.3511 -6.06 -2.26791e-013 1.77636e-015 -86.7867 -11.051 -24.7937 1.62836e-014 -11.08 5.79519e-015 5.81417 -2.22711 18.999 -2.05887e-015 -9.82 2.90416e-015 -0.456191 -6.2815 -0.0250373 -7.10543e-015 4.05 0 -2.49502 -0.593206 0.436891 -3.55271e-015 5.19 -3.55271e-015 3.80677 20.9416 -2.01976 
18.366 39.8083 -6.90928 0.0975163 -0.0869999 0.0930739 3.43 -2.08722e-013 -3.12909e-015 3.01475 1.89312 5.71121 -1.42109e-014 -18.47 -9.51679e-015 1.33503 4.08763 5.28414 0 -17.95 8.88178e-016 -5.12473 -5.10918 -0.228791 -3.43 -2.02849e-013 0 -6.0207 0.616245 -8.13438 5.32907e-015 -18.47 -1.13957e-014 -0.415603 2.2175 -4.50304 -7.10543e-015 -17.95 3.55271e-015 6.48522 -1.38388 0.0784045 -1.20792e-013 4.57 -1.77636e-014 0.455349 1.61698 0.00640995 -7.10543e-015 6.57 -3.55271e-015 0.41162 1.45148 0.0489029 1.06 4.19 1.76 4.98635 1.38112 18.5264 5.81 -1.10646e-013 -1.64313e-014 87.8269 -23.4941 22.0535 7.10543e-015 -12.08 1.04017e-014 -2.73831 -2.12908 -6.59275 1.42109e-014 -9.82 -3.55271e-015 -1.55381 -0.556709 -0.00757732 -1.06 4.19 1.76 -9.27847 1.88418 -18.3867 -6.06 -1.30368e-013 1.77636e-015 -86.6805 -11.0101 -24.8032 1.80653e-014 -11.08 1.55399e-015 5.78702 -2.23027 19.0446 -3.51567e-015 -9.82 3.59962e-015 -0.497621 -6.36463 -0.0276518 -7.10543e-015 4.05 0 -2.37561 -0.549551 0.322886 -3.55271e-015 5.19 -3.55271e-015 3.55125 21.0366 -1.98651 
18.3731 39.8069 -6.91934 0.0474483 -0.0994072 0.00559558 3.43 1.55431e-013 -5.13405e-015 3.0646 1.78629 5.7455 -1.42109e-014 -18.47 -1.1107e-014 1.32698 4.36355 5.29171 0 -17.95 8.88178e-016 -5.12187 -5.26434 -0.235621 -3.43 -3.41084e-014 0 -5.97692 0.599093 -8.08542 5.32907e-015 -18.47 -1.35915e-014 -0.434964 2.21143 -4.45888 -7.10543e-015 -17.95 3.55271e-015 6.50318 -1.35632 0.0770602 -1.20792e-013 4.57 -1.77636e-014 0.431586 1.61672 0.0622099 -7.10543e-015 6.57 -3.55271e-015 0.385507 1.45107 0.0979963 1.06 4.19 1.76 4.99487 1.38194 18.5206 5.81 -1.14971e-013 -1.64313e-014 87.9117 -23.4901 21.9156 7.10543e-015 -12.08 1.35605e-014 -2.83267 -2.12921 -6.38809 1.42109e-014 -9.82 -3.55271e-015 -1.63306 -0.557532 -0.00791618 -1.06 4.19 1.76 -9.21818 1.87411 -18.3589 -6.06 7.13318e-015 1.77636e-015 -86.6102 -10.9947 -24.8017 2.03837e-014 -11.08 -3.94405e-015 5.7652 -2.23685 19.1711 -5.32982e-015 -9.82 4.43279e-015 -0.624175 -6.38558 -0.0347695 -7.10543e-015 4.05 0 -2.31192 -0.516271 0.274492 -3.55271e-015 5.19 -3.55271e-015 3.45763 20.9539 -1.98193 
18.384 39.8044 -6.93423 0.0124978 -0.0674042 -0.0509314 3.43 3.37508e-013 -7.51618e-015 3.0816 1.59947 5.72484 -1.42109e-014 -18.47 -1.29801e-014 1.35486 4.68484 5.34474 0 -17.95 8.88178e-016 -5.13815 -5.42881 -0.243773 -3.43 1.55875e-013 0 -5.95526 0.536105 -8.05 5.32907e-015 -18.47 -1.62112e-014 -0.435742 2.22546 -4.37139 -7.10543e-015 -17.95 3.55271e-015 6.50969 -1.35095 0.0768296 -1.20792e-013 4.57 -1.77636e-014 0.426925 1.56821 0.0755831 -7.10543e-015 6.57 -3.55271e-015 0.380236 1.40693 0.109479 1.06 4.19 1.76 4.90954 1.36897 18.4786 5.81 -1.20518e-013 -1.64313e-014 87.9709 -23.3831 21.781 7.10543e-015 -12.08 1.723e-014 -2.90942 -2.12105 -6.15838 1.42109e-014 -9.82 -3.55271e-015 -1.67327 -0.486784 -0.00711616 -1.06 4.19 1.76 -9.23217 1.87478 -18.346 -6.06 1.5507e-013 1.77636e-015 -86.5324 -11.0461 -24.707 2.32338e-014 -11.08 -1.06621e-014 5.7961 -2.24014 19.1795 -7.49833e-015 -9.82 5.40238e-015 -0.92443 -6.21627 -0.0501582 -7.10543e-015 4.05 0 -2.34558 -0.438382 0.287703 -3.55271e-015 5.19 -3.55271e-015 3.48104 20.9213 -1.99271 
18.3955 39.8015 -6.94855 0.0208093 0.0314403 -0.0290749 3.43 -1.77636e-014 -1.02734e-014 3.04461 1.38956 5.64258 -1.42109e-014 -18.47 -1.51337e-014 1.39981 4.86283 5.37736 0 -17.95 8.88178e-016 -5.15269 -5.49987 -0.247661 -3.43 3.30464e-013 0 -6.00125 0.443366 -8.08648 5.32907e-015 -18.47 -1.9251e-014 -0.388654 2.17988 -4.36546 -7.10543e-015 -17.95 3.55271e-015 6.4968 -1.30463 0.0740484 -1.20792e-013 4.57 -1.77636e-014 0.365394 1.46626 0.0531012 -7.10543e-015 6.57 -3.55271e-015 0.326638 1.31423 0.0833116 1.06 4.19 1.76 4.97682 1.37656 18.4569 5.81 -1.27187e-013 -1.64313e-014 87.8119 -23.3022 21.6985 7.10543e-015 -12.08 2.13973e-014 -2.90772 -2.10811 -6.26393 1.42109e-014 -9.82 -3.55271e-015 -1.59081 -0.532236 -0.00739023 -1.06 4.19 1.76 -9.24507 1.87708 -18.3538 -6.06 2.82802e-013 1.77636e-015 -86.3608 -11.1047 -24.7039 2.66104e-014 -11.08 -1.85635e-014 5.78602 -2.24098 19.2608 -1.00182e-014 -9.82 6.50711e-015 -0.95453 -6.07937 -0.050738 -7.10543e-015 4.05 0 -2.30745 -0.311003 0.282958 -3.55271e-015 5.19 -3.55271e-015 3.49478 20.785 -1.99942 
18.4014 39.8022 -6.96205 -0.00414662 0.0511431 -0.0105848 3.43 -1.86517e-013 -1.34037e-014 3.06667 1.29807 5.6361 -1.42109e-014 -18.47 -1.7565e-014 1.40317 4.98721 5.31099 0 -17.95 8.88178e-016 -5.14511 -5.55951 -0.249974 -3.43 4.53019e-013 0 -5.9927 0.49089 -8.11279 5.32907e-015 -18.47 -2.27068e-014 -0.348741 1.96329 -4.39282 -7.10543e-015 -17.95 3.55271e-015 6.47083 -1.14914 0.0649679 -1.20792e-013 4.57 -1.77636e-014 0.307989 1.47083 0.0329947 -7.10543e-015 6.57 -3.55271e-015 0.276427 1.31848 0.0599802 1.06 4.19 1.76 4.93414 1.37282 18.4936 5.81 -1.34877e-013 -1.64313e-014 87.8238 -23.2855 21.6966 7.10543e-015 -12.08 2.60497e-014 -2.92212 -2.10728 -6.07104 1.42109e-014 -9.82 -3.55271e-015 -1.60037 -0.441631 -0.00611138 -1.06 4.19 1.76 -9.08164 1.85234 -18.307 -6.06 3.59685e-013 1.77636e-015 -86.3928 -11.066 -24.7344 3.05085e-014 -11.08 -2.76113e-014 5.77464 -2.23908 19.2022 -1.28864e-014 -9.82 7.7457e-015 -0.695796 -6.0859 -0.0369281 -7.10543e-015 4.05 0 -2.22568 -0.349932 0.253839 -3.55271e-015 5.19 -3.55271e-015 3.38952 20.7624 -1.9869 
18.4058 39.8056 -6.97743 -0.0239231 0.0119989 -0.020749 3.43 1.11022e-013 -1.6905e-014 3.08563 1.32786 5.66675 -1.42109e-014 -18.47 -2.02714e-014 1.38619 4.94097 5.31884 0 -17.95 8.88178e-016 -5.12192 -5.50385 -0.246372 -3.43 4.86903e-013 0 -5.98324 0.53826 -8.12074 5.32907e-015 -18.47 -2.65749e-014 -0.330167 1.87778 -4.35106 -7.10543e-015 -17.95 3.55271e-015 6.45653 -1.07527 0.060647 -1.20792e-013 4.57 -1.77636e-014 0.273382 1.53088 -0.0282482 -7.10543e-015 6.57 -3.55271e-015 0.250082 1.37338 0.000483304 1.06 4.19 1.76 4.77927 1.35756 18.5928 5.81 -1.43488e-013 -1.64313e-014 87.8951 -23.2231 21.6697 7.10543e-015 -12.08 3.11744e-014 -2.92552 -2.11283 -6.09495 1.42109e-014 -9.82 -3.55271e-015 -1.7044 -0.404767 -0.00606614 -1.06 4.19 1.76 -9.05032 1.83864 -18.1921 -6.06 3.55077e-013 1.77636e-015 -86.4081 -11.0442 -24.7437 3.49229e-014 -11.08 -3.77688e-014 5.78635 -2.23081 19.1146 -1.61e-014 -9.82 9.11688e-015 -0.374568 -6.09067 -0.0199795 -7.10543e-015 4.05 0 -2.29243 -0.47265 0.309647 -3.55271e-015 5.19 -3.55271e-015 3.49687 20.8887 -2.01003 
18.4077 39.8055 -6.99388 0.0166626 -0.0118643 -0.0191542 3.43 2.79776e-013 -2.07752e-014 3.03316 1.38039 5.63519 -1.42109e-014 -18.47 -2.32504e-014 1.39828 4.75977 5.39696 0 -17.95 8.88178e-016 -5.11652 -5.34816 -0.23912 -3.43 3.95476e-013 0 -6.04747 0.455539 -8.16051 5.32907e-015 -18.47 -3.08513e-014 -0.314691 2.09598 -4.32357 -7.10543e-015 -17.95 3.55271e-015 6.45672 -1.18292 0.0667263 -1.20792e-013 4.57 -1.77636e-014 0.169065 1.55555 -0.047156 -7.10543e-015 6.57 -3.55271e-015 0.157248 1.39602 -0.0263744 1.06 4.19 1.76 4.87866 1.36996 18.5848 5.81 -1.52919e-013 -1.64313e-014 87.7669 -23.1816 21.66 7.10543e-015 -12.08 3.67584e-014 -2.88532 -2.09852 -6.52273 1.42109e-014 -9.82 -3.55271e-015 -1.8534 -0.377477 -0.00602499 -1.06 4.19 1.76 -8.99867 1.83027 -18.17 -6.06 1.80966e-013 1.77636e-015 -86.3684 -11.0268 -24.7245 3.98486e-014 -11.08 -4.89993e-014 5.78579 -2.22768 19.2483 -1.9656e-014 -9.82 1.06193e-014 -0.162012 -6.11105 -0.00861705 -7.10543e-015 4.05 0 -2.25366 -0.458166 0.306488 -3.55271e-015 5.19 -3.55271e-015 3.53871 20.8323 -2.02586 
